<svg width="74" height="74" viewBox="0 0 74 74" fill="none" xmlns="http://www.w3.org/2000/svg">
<path d="M31.335 4.55273C34.3747 1.21651 39.6252 1.21651 42.665 4.55273C44.0915 6.11842 46.2992 6.71006 48.3174 6.06738C52.6181 4.69788 57.1655 7.32315 58.1299 11.7324C58.5824 13.8016 60.1984 15.4176 62.2676 15.8701C66.6768 16.8345 69.3021 21.3819 67.9326 25.6826C67.2899 27.7008 67.8816 29.9085 69.4473 31.335C72.7835 34.3747 72.7835 39.6252 69.4473 42.665C67.8816 44.0915 67.2899 46.2992 67.9326 48.3174C69.3021 52.6181 66.6768 57.1655 62.2676 58.1299C60.1984 58.5824 58.5824 60.1984 58.1299 62.2676C57.1655 66.6768 52.6181 69.3021 48.3174 67.9326C46.2992 67.2899 44.0915 67.8816 42.665 69.4473C39.6253 72.7835 34.3747 72.7835 31.335 69.4473C29.9085 67.8816 27.7008 67.2899 25.6826 67.9326C21.3819 69.3021 16.8345 66.6768 15.8701 62.2676C15.4176 60.1984 13.8016 58.5824 11.7324 58.1299C7.32315 57.1655 4.69788 52.6181 6.06738 48.3174C6.71006 46.2992 6.11842 44.0915 4.55273 42.665C1.21651 39.6252 1.21651 34.3747 4.55273 31.335C6.11842 29.9085 6.71006 27.7008 6.06738 25.6826C4.69788 21.3819 7.32315 16.8345 11.7324 15.8701C13.8016 15.4176 15.4176 13.8016 15.8701 11.7324C16.8345 7.32315 21.3819 4.69788 25.6826 6.06738C27.7008 6.71006 29.9085 6.11842 31.335 4.55273Z" fill="#F97216" stroke="#C75B12" stroke-width="2.24242"/>
<g filter="url(#filter0_i_6536_14735)">
<circle cx="37.0008" cy="37.0008" r="22.2" fill="white"/>
</g>
<path d="M43.2414 32.4606V29.3699C43.2414 29.0019 43.0952 28.649 42.835 28.3888C42.5748 28.1286 42.2219 27.9824 41.8539 27.9824H32.1414C31.7734 27.9824 31.4205 28.1286 31.1603 28.3888C30.9001 28.649 30.7539 29.0019 30.7539 29.3699V32.4918C30.7544 32.7071 30.8047 32.9194 30.901 33.112C30.9973 33.3046 31.1369 33.4722 31.3089 33.6018L35.8417 37.0012L31.3089 40.4005C31.1369 40.5301 30.9973 40.6978 30.901 40.8904C30.8047 41.0829 30.7544 41.2952 30.7539 41.5105V44.6324C30.7539 45.0004 30.9001 45.3533 31.1603 45.6135C31.4205 45.8737 31.7734 46.0199 32.1414 46.0199H41.8539C42.2219 46.0199 42.5748 45.8737 42.835 45.6135C43.0952 45.3533 43.2414 45.0004 43.2414 44.6324V41.5418C43.2409 41.3273 43.191 41.1158 43.0955 40.9237C43 40.7317 42.8615 40.5642 42.6907 40.4344L38.1484 37.0012L42.6907 33.568C42.8615 33.4381 43 33.2707 43.0955 33.0786C43.191 32.8866 43.2409 32.6751 43.2414 32.4606ZM41.8539 29.3699V31.4512H32.1414V29.3699H41.8539ZM41.8539 44.6324H32.1414V41.5105L36.9977 37.8684L41.8539 41.5409V44.6324Z" fill="#F97216"/>
<defs>
<filter id="filter0_i_6536_14735" x="14.8008" y="13.8664" width="44.3984" height="45.3347" filterUnits="userSpaceOnUse" color-interpolation-filters="sRGB">
<feFlood flood-opacity="0" result="BackgroundImageFix"/>
<feBlend mode="normal" in="SourceGraphic" in2="BackgroundImageFix" result="shape"/>
<feColorMatrix in="SourceAlpha" type="matrix" values="0 0 0 0 0 0 0 0 0 0 0 0 0 0 0 0 0 0 127 0" result="hardAlpha"/>
<feOffset dy="-0.934343"/>
<feGaussianBlur stdDeviation="9.34343"/>
<feComposite in2="hardAlpha" operator="arithmetic" k2="-1" k3="1"/>
<feColorMatrix type="matrix" values="0 0 0 0 0.976471 0 0 0 0 0.447059 0 0 0 0 0.0862745 0 0 0 1 0"/>
<feBlend mode="normal" in2="shape" result="effect1_innerShadow_6536_14735"/>
</filter>
</defs>
</svg>
